<svg width="15" height="8" viewBox="0 0 15 8" fill="none" xmlns="http://www.w3.org/2000/svg">
<path d="M7.61746 6.56748L1.26749 0.217499L0.207549 1.2775L6.55752 7.62747L7.61746 6.56748ZM12.9075 0.2175L6.55752 6.56748L7.61746 7.62747L13.9676 1.2775L12.9075 0.2175ZM1.2775 0.217499C0.987495 -0.0725006 0.507559 -0.0725006 0.217559 0.217499C-0.0724411 0.507499 -0.0724411 0.987497 0.217559 1.2775L1.2775 0.217499ZM7.08755 7.0975L6.55752 7.62747C6.69752 7.76747 6.88755 7.8475 7.08755 7.8475C7.28755 7.8475 7.47746 7.76747 7.61746 7.62747L7.08755 7.0975ZM13.9676 1.2775C14.2576 0.987498 14.2576 0.5075 13.9676 0.2175C13.6776 -0.0725 13.1975 -0.0725 12.9075 0.2175L13.9676 1.2775Z" fill="#1A1A1A"/>
</svg>
